<svg width="164" height="35" viewBox="0 0 164 35" fill="none" xmlns="http://www.w3.org/2000/svg">
<path d="M7.76555 0.1875C9.82456 0.1875 11.7992 1.00539 13.2552 2.46124C14.7111 3.91709 15.5291 5.89165 15.5291 7.95054C15.5291 10.0094 14.7111 11.984 13.2552 13.4398C11.7992 14.8957 9.82456 15.7136 7.76555 15.7136C5.70654 15.7136 3.73186 14.8957 2.27592 13.4398C0.81998 11.984 0.00204287 10.0094 0.00204287 7.95054C0.00204287 5.89165 0.81998 3.91709 2.27592 2.46124C3.73186 1.00539 5.70654 0.1875 7.76555 0.1875ZM15.527 26.4245C15.527 27.9598 15.0717 29.4607 14.2186 30.7374C13.3656 32.014 12.1531 33.009 10.7345 33.5966C9.31588 34.1841 7.7549 34.3379 6.24892 34.0383C4.74295 33.7388 3.35963 32.9994 2.27388 31.9138C1.18814 30.8281 0.448734 29.4448 0.149177 27.9389C-0.15038 26.4331 0.00336405 24.8722 0.590965 23.4537C1.17857 22.0352 2.17364 20.8227 3.45034 19.9697C4.72704 19.1167 6.22803 18.6614 7.76351 18.6614C10.6038 18.6614 13.3278 17.5332 15.3363 15.5249C17.3447 13.5166 18.473 10.7927 18.473 7.95258C18.473 6.41719 18.9283 4.91629 19.7814 3.63966C20.6344 2.36304 21.8469 1.36803 23.2655 0.780465C24.6841 0.192899 26.2451 0.0391656 27.7511 0.338704C29.257 0.638243 30.6404 1.3776 31.7261 2.46328C32.8119 3.54896 33.5513 4.9322 33.8508 6.43808C34.1504 7.94397 33.9966 9.50486 33.409 10.9234C32.8214 12.3419 31.8264 13.5543 30.5497 14.4073C29.273 15.2603 27.772 15.7156 26.2365 15.7156C23.3965 15.7162 20.673 16.8446 18.6651 18.8529C16.6571 20.8611 15.5291 23.5846 15.5291 26.4245H15.527ZM26.2365 34.1875C24.1775 34.1875 22.2028 33.3696 20.7469 31.9138C19.2909 30.4579 18.473 28.4833 18.473 26.4245C18.473 24.3656 19.2909 22.391 20.7469 20.9352C22.2028 19.4793 24.1775 18.6614 26.2365 18.6614C28.2955 18.6614 30.2702 19.4793 31.7261 20.9352C33.1821 22.391 34 24.3656 34 26.4245C34 28.4833 33.1821 30.4579 31.7261 31.9138C30.2702 33.3696 28.2955 34.1875 26.2365 34.1875ZM26.2365 28.7648C26.8572 28.7648 27.4525 28.5182 27.8915 28.0793C28.3304 27.6404 28.577 27.0451 28.577 26.4245C28.577 25.8038 28.3304 25.2085 27.8915 24.7696C27.4525 24.3307 26.8572 24.0841 26.2365 24.0841C25.6158 24.0841 25.0205 24.3307 24.5815 24.7696C24.1426 25.2085 23.896 25.8038 23.896 26.4245C23.896 27.0451 24.1426 27.6404 24.5815 28.0793C25.0205 28.5182 25.6158 28.7648 26.2365 28.7648ZM7.76555 28.7648C8.38628 28.7648 8.98158 28.5182 9.42051 28.0793C9.85943 27.6404 10.106 27.0451 10.106 26.4245C10.106 25.8038 9.85943 25.2085 9.42051 24.7696C8.98158 24.3307 8.38628 24.0841 7.76555 24.0841C7.14482 24.0841 6.54951 24.3307 6.11059 24.7696C5.67166 25.2085 5.42508 25.8038 5.42508 26.4245C5.42508 27.0451 5.67166 27.6404 6.11059 28.0793C6.54951 28.5182 7.14482 28.7648 7.76555 28.7648ZM26.2365 10.2909C26.8572 10.2909 27.4525 10.0443 27.8915 9.6054C28.3304 9.16651 28.577 8.57123 28.577 7.95054C28.577 7.32985 28.3304 6.73458 27.8915 6.29568C27.4525 5.85678 26.8572 5.61021 26.2365 5.61021C25.6158 5.61021 25.0205 5.85678 24.5815 6.29568C24.1426 6.73458 23.896 7.32985 23.896 7.95054C23.896 8.57123 24.1426 9.16651 24.5815 9.6054C25.0205 10.0443 25.6158 10.2909 26.2365 10.2909ZM7.76555 10.2909C8.38628 10.2909 8.98158 10.0443 9.42051 9.6054C9.85943 9.16651 10.106 8.57123 10.106 7.95054C10.106 7.32985 9.85943 6.73458 9.42051 6.29568C8.98158 5.85678 8.38628 5.61021 7.76555 5.61021C7.14482 5.61021 6.54951 5.85678 6.11059 6.29568C5.67166 6.73458 5.42508 7.32985 5.42508 7.95054C5.42508 8.57123 5.67166 9.16651 6.11059 9.6054C6.54951 10.0443 7.14482 10.2909 7.76555 10.2909Z" fill="white"/>
<path d="M47.588 16.5415H54.694V19.9075H47.588V16.5415ZM47.896 25.1875H43.54V9.7875H55.618V13.1535H47.896V25.1875ZM62.1407 25.1875V13.2415H57.4107V9.7875H71.2047V13.2415H66.4967V25.1875H62.1407ZM81.4298 25.1875V9.7875H88.4698C89.8778 9.7875 91.0878 10.0148 92.0998 10.4695C93.1265 10.9242 93.9185 11.5842 94.4758 12.4495C95.0332 13.3002 95.3118 14.3122 95.3118 15.4855C95.3118 16.6442 95.0332 17.6488 94.4758 18.4995C93.9185 19.3502 93.1265 20.0102 92.0998 20.4795C91.0878 20.9342 89.8778 21.1615 88.4698 21.1615H83.8498L85.7858 19.2695V25.1875H81.4298ZM85.7858 19.7315L83.8498 17.7295H88.2058C89.1152 17.7295 89.7898 17.5315 90.2298 17.1355C90.6845 16.7395 90.9118 16.1895 90.9118 15.4855C90.9118 14.7668 90.6845 14.2095 90.2298 13.8135C89.7898 13.4175 89.1152 13.2195 88.2058 13.2195H83.8498L85.7858 11.2175V19.7315ZM98.5357 25.1875V9.7875H102.892V21.7335H110.24V25.1875H98.5357ZM111.366 25.1875L118.164 9.7875H122.454L129.274 25.1875H124.742L119.418 11.9215H121.134L115.81 25.1875H111.366ZM115.084 22.1955L116.206 18.9835H123.73L124.852 22.1955H115.084ZM131.609 25.1875V9.7875H135.195L143.687 20.0395H141.993V9.7875H146.261V25.1875H142.675L134.183 14.9355H135.877V25.1875H131.609ZM154.437 15.7495H161.587V19.0055H154.437V15.7495ZM154.745 21.8215H162.797V25.1875H150.433V9.7875H162.511V13.1535H154.745V21.8215Z" fill="white"/>
</svg>
